<?xml version="1.0" standalone="no"?>
<!DOCTYPE svg PUBLIC "-//W3C//DTD SVG 20010904//EN"
 "http://www.w3.org/TR/2001/REC-SVG-20010904/DTD/svg10.dtd">
<svg version="1.0" xmlns="http://www.w3.org/2000/svg"
 width="1000.000000pt" height="676.000000pt" viewBox="0 0 1000.000000 676.000000"
 preserveAspectRatio="xMidYMid meet">

<g transform="translate(0.000000,676.000000) scale(0.100000,-0.100000)"
fill="#000000" stroke="none">
<path d="M38 3010 c-27 -28 -30 -36 -25 -77 3 -28 13 -54 26 -67 l22 -21 4939
0 4939 0 22 21 c13 13 23 39 26 67 5 41 2 49 -25 77 l-30 30 -4932 0 -4932 0
-30 -30z"/>
<path d="M7860 2085 l0 -205 305 0 305 0 0 205 0 205 -305 0 -305 0 0 -205z"/>
<path d="M30 1111 l0 -1071 345 0 345 0 0 345 0 345 295 0 c342 0 401 8 535
72 108 52 226 166 282 273 64 123 83 208 82 380 0 173 -12 234 -75 361 -80
164 -227 284 -414 340 -54 16 -123 18 -727 21 l-668 4 0 -1070z m1078 544 c39
-17 78 -49 93 -77 38 -70 29 -215 -17 -275 -48 -63 -85 -73 -286 -73 l-178 0
0 220 0 220 175 0 c136 0 184 -4 213 -15z"/>
<path d="M5800 1110 l0 -1070 890 0 890 0 0 270 0 270 -550 0 -550 0 0 800 0
800 -340 0 -340 0 0 -1070z"/>
<path d="M9147 2133 c-8 -27 -38 -139 -68 -250 l-54 -203 -127 0 -128 0 0
-210 0 -210 115 0 115 0 0 -439 c0 -251 4 -461 10 -492 39 -210 195 -312 500
-326 129 -5 317 13 410 40 l45 13 0 179 0 180 -127 5 c-108 4 -131 8 -155 26
-57 42 -58 47 -61 447 l-3 367 176 0 175 0 0 210 0 210 -175 0 -175 0 0 250 0
250 -230 0 -229 0 -14 -47z"/>
<path d="M3135 1710 c-150 -33 -262 -113 -317 -225 -12 -25 -25 -45 -28 -45
-4 0 -15 54 -25 120 l-18 120 -254 0 -253 0 0 -820 0 -820 310 0 309 0 3 433
c3 471 4 476 65 568 58 88 139 118 346 126 l147 6 0 257 0 257 -37 12 c-49 16
-196 23 -248 11z"/>
<path d="M4395 1710 c-327 -28 -575 -171 -694 -399 -110 -212 -131 -541 -50
-786 39 -117 78 -183 157 -267 149 -158 364 -242 652 -255 510 -23 855 188
962 587 19 74 22 109 22 270 0 217 -14 285 -89 438 -77 155 -219 280 -397 346
-146 55 -376 82 -563 66z m266 -433 c56 -23 114 -81 138 -137 30 -71 45 -203
38 -350 -7 -145 -25 -212 -70 -272 -48 -62 -111 -91 -213 -96 -179 -10 -275
51 -319 202 -14 47 -16 93 -13 259 3 185 5 206 26 252 37 80 93 130 171 152
58 16 193 11 242 -10z"/>
<path d="M7860 860 l0 -820 305 0 305 0 0 820 0 820 -305 0 -305 0 0 -820z"/>
</g>
</svg>
